<svg xmlns="http://www.w3.org/2000/svg" viewBox="0 0 1150 262" width="1150" height="262" font-family="Times New Roman, Times, serif">
  <defs>
    <marker id="fl" markerWidth="10" markerHeight="8" refX="9" refY="3" orient="auto">
      <path d="M0,0 L9,3 L0,6 z" fill="#1a1a1a"/>
    </marker>
  </defs>

  <g fill="none" stroke="#1a1a1a" stroke-width="1.6">
    <rect x="15"  y="26" width="175" height="84" rx="4"/>
    <rect x="250" y="26" width="175" height="84" rx="4"/>
    <rect x="485" y="26" width="175" height="84" rx="4"/>
    <rect x="720" y="26" width="175" height="84" rx="4"/>
    <rect x="955" y="26" width="175" height="84" rx="4"/>
  </g>

  <g fill="#1a1a1a" text-anchor="middle">
    <text x="102"  y="52" font-size="15" font-weight="bold">Electrolizador PEM</text>
    <text x="102"  y="74" font-size="12">200 kW</text>
    <text x="102"  y="94" font-size="12">50 kWh/kg</text>

    <text x="337"  y="52" font-size="15" font-weight="bold">Tanque de baja</text>
    <text x="337"  y="74" font-size="12">3,1 m³ · 40 bar</text>
    <text x="337"  y="94" font-size="12">10,1 kg lleno</text>

    <text x="572"  y="52" font-size="15" font-weight="bold">Compresor</text>
    <text x="572"  y="74" font-size="12">15 kW</text>
    <text x="572"  y="94" font-size="12">3,6 kWh/kg</text>

    <text x="807"  y="52" font-size="15" font-weight="bold">Tanque de alta</text>
    <text x="807"  y="74" font-size="12">0,41 m³ · 600 bar</text>
    <text x="807"  y="94" font-size="12">23,4 kg lleno</text>

    <text x="1042" y="52" font-size="15" font-weight="bold">Surtidor</text>
    <text x="1042" y="74" font-size="12">1,2 kg/min</text>
    <text x="1042" y="94" font-size="12">700 bar</text>
  </g>

  <g stroke="#1a1a1a" stroke-width="1.6" marker-end="url(#fl)">
    <line x1="190" y1="68" x2="246" y2="68"/>
    <line x1="425" y1="68" x2="481" y2="68"/>
    <line x1="660" y1="68" x2="716" y2="68"/>
    <line x1="895" y1="68" x2="951" y2="68"/>
  </g>

  <g fill="#1a1a1a" text-anchor="middle" font-size="11">
    <text x="218" y="60">40 bar</text>
    <text x="453" y="60">H₂</text>
    <text x="688" y="60">600 bar</text>
    <text x="923" y="60">repostaje</text>
  </g>

  <g fill="none" stroke="#1a1a1a" stroke-width="1" stroke-dasharray="3 3">
    <line x1="337" y1="110" x2="337" y2="140"/>
    <line x1="807" y1="110" x2="807" y2="140"/>
    <rect x="232" y="140" width="211" height="104" rx="4"/>
    <rect x="702" y="140" width="211" height="104" rx="4"/>
  </g>

  <g fill="#1a1a1a" text-anchor="middle">
    <text x="337" y="161" font-size="12" font-style="italic">Umbrales del EMS sobre LOH</text>
    <text x="337" y="184" font-size="11.5">95 % · techo del electrolizador</text>
    <text x="337" y="205" font-size="11.5">68 % · reserva del compresor</text>
    <text x="337" y="226" font-size="11.5">55 % · mínimo para comprimir</text>

    <text x="807" y="161" font-size="12" font-style="italic">Umbrales sobre LOH_High</text>
    <text x="807" y="184" font-size="11.5">97 % · techo de seguridad</text>
    <text x="807" y="205" font-size="11.5">79 / 76 % · banda baja</text>
    <text x="807" y="226" font-size="11.5">72 % · nivel crítico</text>
  </g>
</svg>
